<svg id="logosandtypes_com" xmlns="http://www.w3.org/2000/svg" viewBox="0 0 150 150.2" xml:space="preserve"><style>.st1{fill:#00539f}</style><path d="M0 .2h150v150H0V.2z" fill="none"/><path class="st1" d="M58.2 34.7S22.4 76.8 5 97.5c-1 1.2-1.5 2.7-2.3 4.1-2.7 6.8-.7 15.1 4.7 19.7 10 .2 30.1 0 30.1 0s-.9-1.4-1.3-2.2c-3.6-5.4-3.6-13.3-.2-18.7 17.6-21.8 35.7-43 54.2-64.8.2-.2.5-.8 0-1-4.6.2-32 .1-32 .1"/><path d="M146.2 99c-17.2-21.1-34.6-42.5-52-63.4l-.8-.1-15.7 18.4-.1 1.1 23.6 28.8c4.6 5.9 9.9 11.3 14 17.6 3 6.3 1.9 15.1-2.5 20.4h29.5c1.9-.3 2.9-2.3 4.2-3.7 3.1-5.7 3.3-13.6-.2-19.1z" fill="#00a0e0"/><path class="st1" d="M66.7 75.7c-4.5 10.6 4.4 18.4 8.5 26.9 2.5-5.5 7.8-10.2 9.3-16.4 3.2-9.3-4.4-16.8-9-24.1-3.1 4.5-6.6 8.9-8.8 13.6"/><path class="st1" d="M105.8 91.8c-1.5 0-3.2 0-4.7-.1-5.7-.1-11.7-.3-16.1 2.9-4.9 2.9-8.1 7.7-9.9 12.9-1.6-4.5-4.4-9.2-8.5-12-4.2-3.3-9.6-3.7-15.1-3.7-1-.1-5.9-.1-7.1-.1-.4 3.6-.1 7.7 1.5 11 3.7 7.4 11.4 10.7 19.6 9.8 4.4.7 8.2 3.8 9.2 8.1 1.3-2.3 2.9-5.7 5.8-6.9 5.6-2.4 13.1-.1 17.8-4.2 6.1-3.8 9.1-11 7.5-17.7z"/></svg>